<?xml version="1.0" encoding="utf-8"?>
<!-- Generator: Adobe Illustrator 21.0.2, SVG Export Plug-In . SVG Version: 6.00 Build 0)  -->
<svg version="1.1" id="Layer_1" xmlns="http://www.w3.org/2000/svg" xmlns:xlink="http://www.w3.org/1999/xlink" x="0px" y="0px"
	 viewBox="0 0 122.4 119" style="enable-background:new 0 0 122.4 119;" xml:space="preserve">
<style type="text/css">
	.st0{fill:#2F9FA0;}
	.st1{filter:url(#Adobe_OpacityMaskFilter);}
	.st2{fill:url(#SVGID_2_);}
	.st3{mask:url(#SVGID_1_);}
	.st4{fill:#4C9F5A;}
</style>
<g>
	<path class="st0" d="M87,34.5h-1.5c-0.4,0-0.8,0.3-1,0.7L64.8,82.6c-0.3,0.7,0.2,1.5,1,1.5H74c3.7,0,7.1-2.2,8.5-5.7l13-31.1
		C98.1,41.2,93.6,34.5,87,34.5z"/>
	<path class="st0" d="M80,34.5H66.3c-0.4,0-0.8,0.3-1,0.7L45.5,82.6c-0.3,0.7,0.2,1.5,1,1.5h13.7c0.4,0,0.8-0.3,1-0.7L81,36
		C81.3,35.3,80.8,34.5,80,34.5z"/>
</g>
<defs>
	<filter id="Adobe_OpacityMaskFilter" filterUnits="userSpaceOnUse" x="24.4" y="34.5" width="36.4" height="44.9">
		<feColorMatrix  type="matrix" values="1 0 0 0 0  0 1 0 0 0  0 0 1 0 0  0 0 0 1 0"/>
	</filter>
</defs>
<mask maskUnits="userSpaceOnUse" x="24.4" y="34.5" width="36.4" height="44.9" id="SVGID_1_">
	<g class="st1">
		<linearGradient id="SVGID_2_" gradientUnits="userSpaceOnUse" x1="39.5779" y1="48.1532" x2="62.6625" y2="57.6435">
			<stop  offset="0" style="stop-color:#FFFFFF"/>
			<stop  offset="1" style="stop-color:#3F3E3E"/>
		</linearGradient>
		<polygon class="st2" points="96.6,77.9 49.5,97.9 22.7,34.9 69.8,14.9 		"/>
	</g>
</mask>
<g class="st3">
	<path class="st4" d="M60.7,38.3l-1.3-3.2c-0.2-0.4-0.6-0.7-1-0.7H44.7c-0.8,0-1.3,0.8-1,1.5l8.2,19.7c0.4,0.9,1.6,0.9,2,0l6.9-16.5
		C60.8,38.9,60.8,38.6,60.7,38.3z"/>
	<path class="st4" d="M40.2,35.2c-0.2-0.4-0.6-0.7-1-0.7H25.4c-0.8,0-1.3,0.8-1,1.5l17.8,42.8c0.4,0.9,1.6,0.9,2,0l6.9-16.5
		c0.1-0.3,0.1-0.6,0-0.8L40.2,35.2z"/>
</g>
</svg>
