<svg width="18" height="16" viewBox="0 0 18 16" fill="none" xmlns="http://www.w3.org/2000/svg">
<path id="Vector" d="M9.75771 11.5921H14.9471C15.8922 11.5921 16.6347 10.8791 16.6347 10.0261V3.31603C16.6347 2.46302 15.8922 1.75001 14.9471 1.75001H3.55576C2.6107 1.75001 1.86815 2.46302 1.86815 3.31603V10.0261C1.86815 10.8791 2.6107 11.5921 3.55576 11.5921H5.24336V14.7502H5.24653L5.24864 14.7492L9.75876 11.5921H9.75771ZM5.87622 15.5532C5.65168 15.7101 5.37114 15.7772 5.09497 15.74C4.8188 15.7027 4.56908 15.5642 4.39956 15.3542C4.26367 15.1844 4.18997 14.9773 4.18967 14.7642V12.5921H3.55681C2.04219 12.5921 0.814454 11.4431 0.814454 10.0261V3.31603C0.813399 1.89901 2.04113 0.75 3.55576 0.75H14.9471C16.4617 0.75 17.6895 1.89901 17.6895 3.31603V10.0261C17.6895 11.4441 16.4617 12.5921 14.9471 12.5921H10.1058L5.87516 15.5532H5.87622Z" fill="#1C1C1C"/>
</svg>
