<svg width="16" height="15" viewBox="0 0 16 15" fill="none" xmlns="http://www.w3.org/2000/svg">
<g id="add 1">
<path id="Vector" d="M14.2548 6.2735C14.2548 7.49186 14.2536 8.71022 14.2552 9.92897C14.256 10.4954 14.0165 10.9161 13.4966 11.1516C13.3548 11.2157 13.1872 11.2516 13.031 11.252C10.5165 11.2579 8.00205 11.2579 5.48799 11.2551C4.83213 11.2544 4.27236 10.6965 4.27158 10.0426C4.26885 7.52272 4.26885 5.00319 4.27158 2.48326C4.27236 1.86334 4.78408 1.32623 5.40322 1.27936C5.47588 1.27389 5.54932 1.26998 5.62197 1.26998C8.04853 1.26959 10.4751 1.2692 12.9021 1.26998C13.5403 1.26998 14.0114 1.57897 14.1845 2.12975C14.2345 2.28873 14.2505 2.46451 14.2513 2.63248C14.2567 3.84615 14.254 5.05944 14.254 6.27311L14.2548 6.2735ZM12.3685 5.63404H9.87744V3.15904H8.63603V5.64225H6.15088V6.8899H8.63955V9.37662H9.88721V6.88561H12.3685V5.63365V5.63404Z" fill="white"/>
<path id="Vector_2" d="M1.77153 3.7749H3.02309V12.4976H11.7454V13.7472C11.6961 13.7499 11.6446 13.755 11.5934 13.755C8.76723 13.755 5.94106 13.7558 3.11489 13.755C2.43872 13.755 1.9477 13.3882 1.80512 12.7749C1.77895 12.6624 1.77309 12.5433 1.7727 12.4269C1.77114 9.59014 1.77153 6.75381 1.77153 3.91709C1.77153 3.87373 1.77153 3.83076 1.77153 3.7749Z" fill="white"/>
</g>
</svg>
