<svg width="26" height="40" viewBox="0 0 26 40" fill="none" xmlns="http://www.w3.org/2000/svg">
<path d="M17.4194 0.0383797C17.1899 0.10656 16.9713 0.207418 16.7705 0.337854L1.79684 7.8247C1.44593 7.92705 1.12178 8.10524 0.847314 8.34668C0.572851 8.58811 0.354776 8.88688 0.208507 9.22188C0.0622371 9.55688 -0.00865493 9.91992 0.00084259 10.2853C0.0103401 10.6508 0.0999953 11.0096 0.263469 11.3366C0.426943 11.6635 0.660245 11.9506 0.946879 12.1774C1.23351 12.4043 1.56648 12.5654 1.92224 12.6494C2.278 12.7333 2.64787 12.7381 3.00569 12.6634C3.36351 12.5887 3.70056 12.4363 3.99299 12.217L18.9667 4.73014C19.5042 4.46283 19.9273 4.01075 20.1585 3.45679C20.3897 2.90282 20.4134 2.28408 20.2254 1.71401C20.0374 1.14393 19.6502 0.660724 19.1349 0.352964C18.6195 0.0452042 18.0104 -0.0664823 17.4194 0.0383797ZM22.4106 7.52523C22.1811 7.59341 21.9626 7.69427 21.7618 7.8247L1.79684 17.8072C1.44593 17.9095 1.12178 18.0877 0.847314 18.3291C0.572851 18.5706 0.354776 18.8694 0.208507 19.2043C0.0622371 19.5393 -0.00865493 19.9024 0.00084259 20.2678C0.0103401 20.6332 0.0999953 20.9921 0.263469 21.319C0.426943 21.646 0.660245 21.933 0.946879 22.1599C1.23351 22.3867 1.56648 22.5478 1.92224 22.6318C2.278 22.7158 2.64787 22.7206 3.00569 22.6459C3.36351 22.5712 3.70056 22.4188 3.99299 22.1995L23.9579 12.217C24.4954 11.9497 24.9185 11.4976 25.1497 10.9436C25.3809 10.3897 25.4047 9.77093 25.2167 9.20086C25.0287 8.63078 24.6415 8.14757 24.1261 7.83981C23.6107 7.53205 23.0017 7.42037 22.4106 7.52523ZM22.4106 17.5077C22.1811 17.5759 21.9626 17.6767 21.7618 17.8072L6.78808 25.294C6.30507 25.554 5.92116 25.9658 5.69571 26.4658C5.47026 26.9659 5.41582 27.5262 5.54081 28.0603C5.66581 28.5944 5.96328 29.0724 6.38722 29.4205C6.81116 29.7685 7.33796 29.9672 7.88615 29.9858H17.8686C18.5305 30.0917 19.2073 29.9303 19.7502 29.5372C20.2931 29.144 20.6576 28.5513 20.7635 27.8895C20.8694 27.2276 20.7081 26.5507 20.3149 26.0078C19.9218 25.4649 19.3291 25.1004 18.6672 24.9945L23.9579 22.1995C24.4954 21.9321 24.9185 21.4801 25.1497 20.9261C25.3809 20.3721 25.4047 19.7534 25.2167 19.1833C25.0287 18.6133 24.6415 18.13 24.1261 17.8223C23.6107 17.5145 23.0017 17.4028 22.4106 17.5077ZM9.63308 34.977C8.9712 35.0829 8.3785 35.4474 7.98536 35.9903C7.59223 36.5332 7.43086 37.21 7.53676 37.8719C7.64266 38.5338 8.00716 39.1265 8.55006 39.5196C9.09296 39.9128 9.7698 40.0741 10.4317 39.9682H15.4229C16.0848 39.9682 16.7196 39.7053 17.1876 39.2373C17.6556 38.7693 17.9185 38.1345 17.9185 37.4726C17.9185 36.8108 17.6556 36.176 17.1876 35.708C16.7196 35.2399 16.0848 34.977 15.4229 34.977H10.4317C10.2822 34.9635 10.1319 34.9635 9.98247 34.977C9.88273 34.971 9.78273 34.971 9.68299 34.977H9.63308Z" fill="black"/>
</svg>
