<svg width="37" height="37" viewBox="0 0 37 37" fill="none" xmlns="http://www.w3.org/2000/svg">
<g id="solar:paperclip-outline">
<path id="Vector" fill-rule="evenodd" clip-rule="evenodd" d="M13.6997 5.18465C18.2352 0.841772 25.5705 0.841772 30.1076 5.18465C34.6725 9.55373 34.6725 16.6608 30.1076 21.0314L17.8545 32.7604C14.6324 35.8438 9.42771 35.8438 6.20562 32.7604C5.43568 32.0354 4.82217 31.1606 4.40282 30.1897C3.98347 29.2188 3.76714 28.1724 3.76714 27.1149C3.76714 26.0573 3.98347 25.0109 4.40282 24.04C4.82217 23.0691 5.43568 22.1943 6.20562 21.4693L18.283 9.90985C19.214 9.03026 20.4463 8.54021 21.7271 8.54021C23.0079 8.54021 24.2402 9.03026 25.1712 9.90985C25.6297 10.3425 25.995 10.8642 26.2447 11.4431C26.4944 12.0219 26.6232 12.6457 26.6232 13.2761C26.6232 13.9065 26.4944 14.5302 26.2447 15.1091C25.995 15.6879 25.6297 16.2097 25.1712 16.6423L13.0075 28.2881C12.8977 28.3931 12.7684 28.4756 12.6268 28.5307C12.4852 28.5857 12.3341 28.6124 12.1823 28.6091C12.0304 28.6058 11.8806 28.5726 11.7415 28.5115C11.6025 28.4503 11.4768 28.3623 11.3717 28.2526C11.2667 28.1429 11.1842 28.0135 11.1292 27.8719C11.0741 27.7303 11.0474 27.5793 11.0507 27.4274C11.054 27.2755 11.0872 27.1258 11.1483 26.9867C11.2095 26.8476 11.2975 26.722 11.4072 26.6169L23.571 14.9727C23.8038 14.7559 23.9896 14.4934 24.1166 14.2016C24.2436 13.9098 24.3091 13.5951 24.3091 13.2769C24.3091 12.9587 24.2436 12.6439 24.1166 12.3521C23.9896 12.0603 23.8038 11.7979 23.571 11.581C23.0705 11.1136 22.4112 10.8536 21.7264 10.8536C21.0415 10.8536 20.3822 11.1136 19.8817 11.581L7.80433 23.1404C7.26007 23.6495 6.82617 24.265 6.52952 24.9486C6.23288 25.6323 6.07981 26.3696 6.07981 27.1149C6.07981 27.8601 6.23288 28.5974 6.52952 29.2811C6.82617 29.9647 7.26007 30.5802 7.80433 31.0893C10.1322 33.317 13.9278 33.317 16.2557 31.0893L28.5089 19.3603C32.1226 15.9008 32.1226 10.3138 28.5089 6.85427C24.866 3.36856 18.9398 3.36856 15.2968 6.85427L5.42554 16.3047C5.20413 16.5171 4.90742 16.6329 4.60066 16.6265C4.29391 16.6201 4.00224 16.4922 3.78983 16.2708C3.57742 16.0494 3.46166 15.7526 3.46802 15.4459C3.47438 15.1391 3.60234 14.8475 3.82375 14.6351L13.6997 5.18465Z" fill="#1C1C1C"/>
</g>
</svg>
