<svg width="20" height="18" viewBox="0 0 20 18" fill="none" xmlns="http://www.w3.org/2000/svg">
<path id="Vector" d="M5 0.475098C3.625 0.475098 2.4 1.0501 1.475 1.9501C0.575 2.8501 0 4.0751 0 5.4751C0 6.8501 0.575 8.0751 1.475 9.0001L10 17.5251L18.525 9.0001C19.425 8.1001 20 6.8751 20 5.4751C20 4.1001 19.425 2.8751 18.525 1.9501C17.625 1.0501 16.4 0.475098 15 0.475098C13.625 0.475098 12.4 1.0501 11.475 1.9501C10.575 2.8501 10 4.0751 10 5.4751C10 4.1001 9.425 2.8751 8.525 1.9501C7.625 1.0501 6.4 0.475098 5 0.475098Z" fill="black" fill-opacity="0.2"/>
</svg>
