<svg width="30" height="30" viewBox="0 0 30 30" fill="none" xmlns="http://www.w3.org/2000/svg">
<mask id="mask0_554_1464" style="mask-type:luminance" maskUnits="userSpaceOnUse" x="1" y="0" width="29" height="29">
<path d="M29.9748 0.0244141H1.40332V28.5958H29.9748V0.0244141Z" fill="white"/>
</mask>
<g mask="url(#mask0_554_1464)">
<path d="M27.1236 10.2272L25.6299 9.54823L27.1236 8.8693L27.8025 7.3756L28.4815 8.8693L29.9752 9.54823L28.4815 10.2272L27.8025 11.7208L27.1236 10.2272ZM22.9811 4.31013L20.7788 3.26846L22.9811 2.2268L24.0228 0.0244141L25.0645 2.2268L27.2668 3.26846L25.0645 4.31013L24.0228 6.51251L22.9811 4.31013ZM12.118 26.2149C11.4434 26.2149 10.873 25.9817 10.4067 25.5154C9.94044 25.0491 9.70731 24.4787 9.70731 23.8041H14.5288C14.5288 24.4787 14.2956 25.0491 13.8293 25.5154C13.3631 25.9817 12.7926 26.2149 12.118 26.2149ZM8.18945 21.959C7.93647 21.959 7.72442 21.8729 7.5533 21.7007C7.38215 21.5286 7.2966 21.3153 7.2966 21.0609C7.2966 20.8064 7.38215 20.5949 7.5533 20.4261C7.72442 20.2576 7.93647 20.1733 8.18945 20.1733H16.0466C16.2996 20.1733 16.5116 20.2593 16.6828 20.4314C16.8539 20.6036 16.9395 20.8169 16.9395 21.0713C16.9395 21.3257 16.8539 21.5373 16.6828 21.706C16.5116 21.8746 16.2996 21.959 16.0466 21.959H8.18945ZM7.4454 18.3577C6.13588 17.5046 5.09917 16.4381 4.33528 15.1583C3.5714 13.8786 3.18945 12.4351 3.18945 10.828C3.18945 8.40736 4.07238 6.3141 5.83825 4.54823C7.60414 2.78236 9.69738 1.89941 12.118 1.89941C14.5386 1.89941 16.6319 2.78236 18.3978 4.54823C20.1636 6.3141 21.0466 8.40736 21.0466 10.828C21.0466 12.4351 20.6696 13.8786 19.9156 15.1583C19.1616 16.4381 18.1201 17.5046 16.7906 18.3577H7.4454ZM8.10017 16.572H16.1558C17.1148 15.9371 17.8721 15.1124 18.4275 14.098C18.9831 13.0835 19.2609 11.9935 19.2609 10.828C19.2609 8.8637 18.5615 7.18216 17.1626 5.78334C15.7639 4.38453 14.0823 3.68513 12.118 3.68513C10.1537 3.68513 8.47218 4.38453 7.07338 5.78334C5.67457 7.18216 4.97517 8.8637 4.97517 10.828C4.97517 11.9935 5.25294 13.0835 5.8085 14.098C6.36405 15.1124 7.12794 15.9371 8.10017 16.572Z" fill="white"/>
</g>
<mask id="mask1_554_1464" style="mask-type:luminance" maskUnits="userSpaceOnUse" x="1" y="0" width="29" height="29">
<path d="M29.9748 0.0244141H1.40332V28.5958H29.9748V0.0244141Z" fill="white"/>
</mask>
<g mask="url(#mask1_554_1464)">
<path d="M27.1232 10.2272L25.6295 9.54823L27.1232 8.8693L27.802 7.3756L28.481 8.8693L29.9748 9.54823L28.481 10.2272L27.802 11.7208L27.1232 10.2272ZM22.9806 4.31013L20.7783 3.26846L22.9806 2.2268L24.0223 0.0244141L25.064 2.2268L27.2663 3.26846L25.064 4.31013L24.0223 6.51251L22.9806 4.31013Z" fill="white"/>
</g>
</svg>
