<svg width="30" height="30" viewBox="0 0 30 30" fill="none" xmlns="http://www.w3.org/2000/svg">
<path d="M20.1562 19.7812C19.9687 19.5937 19.875 19.3672 19.875 19.1016C19.875 18.8359 19.9687 18.6146 20.1562 18.4375L22.6562 15.9375H12.6562C12.3906 15.9375 12.168 15.8471 11.9883 15.6664C11.8086 15.4857 11.7188 15.2617 11.7188 14.9946C11.7188 14.7274 11.8086 14.5052 11.9883 14.3281C12.168 14.1511 12.3906 14.0625 12.6562 14.0625H22.5938L20.0625 11.5313C19.8958 11.3646 19.8125 11.1516 19.8125 10.8923C19.8125 10.6329 19.9085 10.409 20.1004 10.2204C20.2764 10.0318 20.4964 9.9375 20.7603 9.9375C21.0242 9.9375 21.25 10.0313 21.4375 10.2188L25.5938 14.375C25.6979 14.4792 25.7708 14.5848 25.8125 14.6917C25.8542 14.7986 25.875 14.9132 25.875 15.0354C25.875 15.1576 25.8542 15.2708 25.8125 15.375C25.7708 15.4792 25.6979 15.5833 25.5938 15.6875L21.4687 19.8125C21.3021 19.9792 21.0886 20.0625 20.8281 20.0625C20.5677 20.0625 20.3438 19.9687 20.1562 19.7812ZM5.625 26.25C5.125 26.25 4.6875 26.0625 4.3125 25.6875C3.9375 25.3125 3.75 24.875 3.75 24.375V5.625C3.75 5.125 3.9375 4.6875 4.3125 4.3125C4.6875 3.9375 5.125 3.75 5.625 3.75H13.7812C14.0469 3.75 14.2696 3.84036 14.4492 4.02109C14.6289 4.20184 14.7187 4.4258 14.7187 4.69297C14.7187 4.96016 14.6289 5.18229 14.4492 5.35937C14.2696 5.53646 14.0469 5.625 13.7812 5.625H5.625V24.375H13.7812C14.0469 24.375 14.2696 24.4654 14.4492 24.6461C14.6289 24.8268 14.7187 25.0508 14.7187 25.318C14.7187 25.5851 14.6289 25.8073 14.4492 25.9844C14.2696 26.1614 14.0469 26.25 13.7812 26.25H5.625Z" fill="#1C1C1C"/>
<path d="M20.1562 19.7812C19.9687 19.5937 19.875 19.3672 19.875 19.1016C19.875 18.8359 19.9687 18.6146 20.1562 18.4375L22.6562 15.9375H12.6562C12.3906 15.9375 12.168 15.8471 11.9883 15.6664C11.8086 15.4857 11.7188 15.2617 11.7188 14.9946C11.7188 14.7274 11.8086 14.5052 11.9883 14.3281C12.168 14.1511 12.3906 14.0625 12.6562 14.0625H22.5938L20.0625 11.5313C19.8958 11.3646 19.8125 11.1516 19.8125 10.8923C19.8125 10.6329 19.9085 10.409 20.1004 10.2204C20.2764 10.0318 20.4964 9.9375 20.7603 9.9375C21.0242 9.9375 21.25 10.0313 21.4375 10.2188L25.5938 14.375C25.6979 14.4792 25.7708 14.5848 25.8125 14.6917C25.8542 14.7986 25.875 14.9132 25.875 15.0354C25.875 15.1576 25.8542 15.2709 25.8125 15.375C25.7708 15.4792 25.6979 15.5834 25.5938 15.6875L21.4687 19.8125C21.3021 19.9792 21.0886 20.0625 20.8281 20.0625C20.5677 20.0625 20.3438 19.9688 20.1562 19.7812Z" fill="#1E9E85"/>
</svg>
