<?xml version="1.0" encoding="utf-8"?>
<!-- Generator: Adobe Illustrator 27.7.0, SVG Export Plug-In . SVG Version: 6.00 Build 0)  -->
<svg version="1.1" id="Layer_1" xmlns="http://www.w3.org/2000/svg" xmlns:xlink="http://www.w3.org/1999/xlink" x="0px" y="0px"
	 viewBox="0 0 30 30" style="enable-background:new 0 0 30 30;" xml:space="preserve">
<style type="text/css">
	.st0{fill:#F9F9F9;}
	.st1{fill:#1E9E85;}
</style>
<path class="st0" d="M5.9,26.2c-0.5,0-0.9-0.2-1.3-0.6S4,24.9,4,24.4V5.6c0-0.5,0.2-0.9,0.6-1.3s0.8-0.6,1.3-0.6H14
	c0.3,0,0.5,0.1,0.7,0.3C14.9,4.2,15,4.4,15,4.7c0,0.3-0.1,0.5-0.3,0.7S14.3,5.7,14,5.7H5.9v18.8H14c0.3,0,0.5,0.1,0.7,0.3
	c0.2,0.2,0.3,0.4,0.3,0.7c0,0.3-0.1,0.5-0.3,0.7s-0.4,0.3-0.7,0.3H5.9V26.2z"/>
<path class="st1" d="M20.2,19.8c-0.2-0.2-0.3-0.4-0.3-0.7c0-0.3,0.1-0.5,0.3-0.7l2.5-2.5h-10c-0.3,0-0.5-0.1-0.7-0.3
	s-0.3-0.4-0.3-0.7s0.1-0.5,0.3-0.7s0.4-0.3,0.7-0.3h9.9l-2.5-2.5c-0.2-0.2-0.2-0.4-0.2-0.6c0-0.3,0.1-0.5,0.3-0.7
	c0.2-0.2,0.4-0.3,0.7-0.3c0.3,0,0.5,0.1,0.7,0.3l4.2,4.2c0.1,0.1,0.2,0.2,0.2,0.3s0.1,0.2,0.1,0.3s0,0.2-0.1,0.3
	c0,0.1-0.1,0.2-0.2,0.3l-4.1,4.1c-0.2,0.2-0.4,0.2-0.6,0.2C20.6,20.1,20.3,20,20.2,19.8z"/>
</svg>
