<svg width="16" height="16" viewBox="0 0 16 16" fill="none" xmlns="http://www.w3.org/2000/svg">
<path d="M12.9997 6.99992C12.5563 7.00034 12.1256 7.14782 11.775 7.41926C11.4244 7.6907 11.1737 8.07076 11.0622 8.49992H9.49975C9.1118 8.499 8.72933 8.40824 8.38234 8.23474C8.03534 8.06125 7.73325 7.80973 7.49975 7.49992L5.85537 5.30742C6.28045 5.10574 6.62081 4.76066 6.81662 4.33285C7.01242 3.90504 7.05114 3.42189 6.92596 2.96836C6.80078 2.51483 6.51971 2.11995 6.13219 1.85315C5.74466 1.58635 5.27547 1.46471 4.80713 1.50962C4.33879 1.55454 3.90127 1.76312 3.57151 2.09871C3.24175 2.4343 3.04085 2.8754 3.00415 3.34445C2.96744 3.81351 3.09727 4.28049 3.37081 4.66329C3.64436 5.04609 4.0441 5.3202 4.49975 5.43742V10.5624C4.02842 10.6841 3.61765 10.9735 3.34445 11.3764C3.07124 11.7793 2.95435 12.268 3.01569 12.7509C3.07703 13.2338 3.31238 13.6778 3.67763 13.9996C4.04289 14.3214 4.51296 14.4989 4.99975 14.4989C5.48654 14.4989 5.95661 14.3214 6.32187 13.9996C6.68712 13.6778 6.92247 13.2338 6.98381 12.7509C7.04515 12.268 6.92826 11.7793 6.65505 11.3764C6.38184 10.9735 5.97108 10.6841 5.49975 10.5624V6.49992L6.69975 8.09992C7.02663 8.53368 7.44956 8.88581 7.93535 9.12871C8.42115 9.37161 8.95661 9.49867 9.49975 9.49992H11.0622C11.1558 9.86207 11.3489 10.1907 11.6199 10.4486C11.8908 10.7065 12.2286 10.8832 12.5949 10.9587C12.9612 11.0342 13.3414 11.0055 13.6922 10.8758C14.043 10.7462 14.3505 10.5207 14.5796 10.2251C14.8087 9.92943 14.9503 9.57547 14.9884 9.20339C15.0264 8.8313 14.9594 8.45601 14.7948 8.12011C14.6303 7.78422 14.3749 7.5012 14.0576 7.30319C13.7403 7.10518 13.3738 7.00011 12.9997 6.99992ZM5.99975 12.4999C5.99975 12.6977 5.9411 12.891 5.83122 13.0555C5.72134 13.2199 5.56516 13.3481 5.38243 13.4238C5.19971 13.4995 4.99864 13.5193 4.80466 13.4807C4.61068 13.4421 4.43249 13.3469 4.29264 13.207C4.15279 13.0672 4.05755 12.889 4.01896 12.695C3.98038 12.501 4.00018 12.3 4.07587 12.1172C4.15156 11.9345 4.27973 11.7783 4.44418 11.6685C4.60863 11.5586 4.80197 11.4999 4.99975 11.4999C5.26497 11.4999 5.51932 11.6053 5.70686 11.7928C5.89439 11.9804 5.99975 12.2347 5.99975 12.4999ZM12.9997 9.99992C12.7345 9.99992 12.4802 9.89456 12.2926 9.70703C12.1051 9.51949 11.9997 9.26514 11.9997 8.99992C11.9997 8.80214 12.0584 8.6088 12.1683 8.44435C12.2782 8.2799 12.4343 8.15173 12.6171 8.07604C12.7998 8.00035 13.0009 7.98055 13.1948 8.01914C13.3888 8.05772 13.567 8.15296 13.7069 8.29281C13.8467 8.43267 13.9419 8.61085 13.9805 8.80483C14.0191 8.99881 13.9993 9.19988 13.9236 9.38261C13.8479 9.56533 13.7198 9.72151 13.5553 9.83139C13.3909 9.94127 13.1975 9.99992 12.9997 9.99992Z" fill="#1C1C1C"/>
</svg>
