<svg width="16" height="16" viewBox="0 0 16 16" fill="none" xmlns="http://www.w3.org/2000/svg">
<g clip-path="url(#clip0_895_1599)">
<path d="M13.4333 8.66667H5.33333V7.33333H13.4333L12.4 6.3L13.3333 5.33333L16 8L13.3333 10.6667L12.4 9.7L13.4333 8.66667ZM10 6V3.33333H3.33333V12.6667H10V10H11.3333V12.6667C11.3333 13.0333 11.2027 13.3473 10.9413 13.6087C10.68 13.87 10.3662 14.0004 10 14H3.33333C2.96667 14 2.65267 13.8693 2.39133 13.608C2.13 13.3467 1.99956 13.0329 2 12.6667V3.33333C2 2.96667 2.13067 2.65267 2.392 2.39133C2.65333 2.13 2.96711 1.99956 3.33333 2H10C10.3667 2 10.6807 2.13067 10.942 2.392C11.2033 2.65333 11.3338 2.96711 11.3333 3.33333V6H10Z" fill="#1C1C1C"/>
</g>
<defs>
<clipPath id="clip0_895_1599">
<rect width="16" height="16" fill="white"/>
</clipPath>
</defs>
</svg>
