<svg width="30" height="30" viewBox="0 0 30 30" fill="none" xmlns="http://www.w3.org/2000/svg">
<g id="svgexport-8 2">
<path id="Vector" d="M23.4492 26.0204C22.6125 26.0204 21.8829 25.7705 21.2604 25.2704C20.638 24.7704 20.2452 24.1633 20.0819 23.449H13.5615C12.2145 23.449 11.0972 23.0051 10.2094 22.1174C9.32167 21.2296 8.87779 20.1123 8.87779 18.7653C8.87779 17.4184 9.32167 16.301 10.2094 15.4133C11.0972 14.5255 12.2145 14.0817 13.5615 14.0817H15.9186C16.7554 14.0817 17.439 13.8164 17.9696 13.2857C18.5003 12.7551 18.7655 12.0715 18.7655 11.2347C18.7655 10.398 18.5003 9.71433 17.9696 9.1837C17.439 8.65306 16.7554 8.38778 15.9186 8.38778H9.30636C9.12269 9.10208 8.72473 9.70919 8.11248 10.2092C7.50024 10.7092 6.77577 10.9592 5.93901 10.9592C4.95942 10.9592 4.13289 10.6225 3.45942 9.949C2.78595 9.27553 2.44922 8.449 2.44922 7.46941C2.44922 6.48982 2.78595 5.66329 3.45942 4.98982C4.13289 4.31635 4.95942 3.97961 5.93901 3.97961C6.77577 3.97961 7.50024 4.22961 8.11248 4.72961C8.72473 5.22962 9.12269 5.83676 9.30636 6.55104H15.9186C17.2655 6.55104 18.3829 6.99492 19.2706 7.88268C20.1584 8.77043 20.6023 9.88778 20.6023 11.2347C20.6023 12.5817 20.1584 13.699 19.2706 14.5868C18.3829 15.4745 17.2655 15.9184 15.9186 15.9184H13.5615C12.7247 15.9184 12.0411 16.1837 11.5104 16.7143C10.9798 17.2449 10.7145 17.9286 10.7145 18.7653C10.7145 19.6021 10.9798 20.2857 11.5104 20.8163C12.0411 21.347 12.7247 21.6123 13.5615 21.6123H20.0819C20.2655 20.898 20.6635 20.2909 21.2757 19.7908C21.888 19.2908 22.6125 19.0408 23.4492 19.0408C24.4288 19.0408 25.2553 19.3776 25.9288 20.051C26.6023 20.7245 26.939 21.551 26.939 22.5306C26.939 23.5102 26.6023 24.3368 25.9288 25.0102C25.2553 25.6837 24.4288 26.0204 23.4492 26.0204ZM5.93901 9.12247C6.40842 9.12247 6.80124 8.96433 7.11759 8.64798C7.43393 8.33163 7.59208 7.93882 7.59208 7.46941C7.59208 7 7.43393 6.60719 7.11759 6.29084C6.80124 5.97451 6.40842 5.81635 5.93901 5.81635C5.46962 5.81635 5.07677 5.97451 4.76044 6.29084C4.44411 6.60719 4.28595 7 4.28595 7.46941C4.28595 7.93882 4.44411 8.33163 4.76044 8.64798C5.07677 8.96433 5.46962 9.12247 5.93901 9.12247Z" fill="#018647"/>
<path id="Vector_2" d="M23.4489 26.1838C25.4663 26.1838 27.1018 24.5483 27.1018 22.5308C27.1018 20.5133 25.4663 18.8778 23.4489 18.8778C21.4314 18.8778 19.7959 20.5133 19.7959 22.5308C19.7959 24.5483 21.4314 26.1838 23.4489 26.1838Z" fill="#018647"/>
<path id="Vector_3" d="M9.48325 7.43669C9.48325 9.42441 7.87194 11.0358 5.88421 11.0358C3.89651 11.0358 2.28516 9.42441 2.28516 7.43669C2.28516 5.449 3.89651 3.83765 5.88421 3.83765C7.87194 3.83765 9.48325 5.449 9.48325 7.43669Z" fill="#018647"/>
<path id="Vector_4" d="M7.92609 7.43667C7.92609 8.56449 7.01176 9.47882 5.88393 9.47882C4.75609 9.47882 3.8418 8.56449 3.8418 7.43667C3.8418 6.3088 4.75609 5.39453 5.88393 5.39453C7.01176 5.39453 7.92609 6.3088 7.92609 7.43667Z" fill="white"/>
</g>
</svg>
