<svg width="23" height="21" viewBox="0 0 23 21" fill="none" xmlns="http://www.w3.org/2000/svg">
<g id="&#240;&#159;&#166;&#134; icon &#34;list&#34;">
<path id="Vector" d="M1.42959 0C0.629021 0 0 0.629021 0 1.42959C0 2.23017 0.629021 2.85919 1.42959 2.85919C2.23017 2.85919 2.85919 2.23017 2.85919 1.42959C2.85919 0.629021 2.23017 0 1.42959 0ZM5.71837 0V2.85919H22.8735V0H5.71837ZM1.42959 5.71837C0.629021 5.71837 0 6.34739 0 7.14796C0 7.94854 0.629021 8.57756 1.42959 8.57756C2.23017 8.57756 2.85919 7.94854 2.85919 7.14796C2.85919 6.34739 2.23017 5.71837 1.42959 5.71837ZM5.71837 5.71837V8.57756H22.8735V5.71837H5.71837ZM1.42959 11.4367C0.629021 11.4367 0 12.0658 0 12.8663C0 13.6669 0.629021 14.2959 1.42959 14.2959C2.23017 14.2959 2.85919 13.6669 2.85919 12.8663C2.85919 12.0658 2.23017 11.4367 1.42959 11.4367ZM5.71837 11.4367V14.2959H22.8735V11.4367H5.71837ZM1.42959 17.1551C0.629021 17.1551 0 17.7841 0 18.5847C0 19.3853 0.629021 20.0143 1.42959 20.0143C2.23017 20.0143 2.85919 19.3853 2.85919 18.5847C2.85919 17.7841 2.23017 17.1551 1.42959 17.1551ZM5.71837 17.1551V20.0143H22.8735V17.1551H5.71837Z" fill="#018647"/>
</g>
</svg>
